<svg xmlns="http://www.w3.org/2000/svg" viewBox="0 0 48 48"><defs><style>.cls-1{fill:#ad1616;}</style></defs><title>iconshouse, home, real, estate</title><g id="house_home_real_estate" data-name="house, home, real, estate"><path class="cls-1" d="M43.47,16.12,36,12.19V6a1,1,0,0,0-1-1H32a1,1,0,0,0-1,1V9.55L24.47,6.12a1,1,0,0,0-.94,0l-19,10A1,1,0,0,0,4,17v4a1,1,0,0,0,.48.86,1,1,0,0,0,1,0L24,12.13l18.53,9.75A1,1,0,0,0,43,22a1.07,1.07,0,0,0,.52-.14A1,1,0,0,0,44,21V17A1,1,0,0,0,43.47,16.12Z"/><rect class="cls-1" x="20" y="32" width="8" height="11"/><path class="cls-1" d="M8,22.81V42a1,1,0,0,0,1,1h9V31a1,1,0,0,1,1-1H29a1,1,0,0,1,1,1V43h9a1,1,0,0,0,1-1V22.81L24,14.39Z"/></g></svg>