<svg xmlns="http://www.w3.org/2000/svg" viewBox="0 0 48 48"><defs><style>.cls-1{fill:#ad1616;}</style></defs><title>iconshotel, building, apartment</title><g id="hotel_building_apartment" data-name="hotel, building, apartment"><rect class="cls-1" x="20" y="33" width="8" height="12"/><path class="cls-1" d="M39,3H9A1,1,0,0,0,8,4V44a1,1,0,0,0,1,1h9V32a1,1,0,0,1,1-1H29a1,1,0,0,1,1,1V45h9a1,1,0,0,0,1-1V4A1,1,0,0,0,39,3ZM21,23H15a1,1,0,0,1,0-2h6a1,1,0,0,1,0,2Zm0-6H15a1,1,0,0,1,0-2h6a1,1,0,0,1,0,2Zm0-6H15a1,1,0,0,1,0-2h6a1,1,0,0,1,0,2ZM33,23H27a1,1,0,0,1,0-2h6a1,1,0,0,1,0,2Zm0-6H27a1,1,0,0,1,0-2h6a1,1,0,0,1,0,2Zm0-6H27a1,1,0,0,1,0-2h6a1,1,0,0,1,0,2Z"/></g></svg>