<svg id="Layer_1" data-name="Layer 1" xmlns="http://www.w3.org/2000/svg" viewBox="0 0 1920 200"><defs><style>.cls-1,.cls-4{fill:#ab1f24;}.cls-2,.cls-3{fill:#fff;}.cls-3,.cls-4{fill-rule:evenodd;}</style></defs><title>headerArtboard 1</title><rect class="cls-1" width="1920" height="200"/><rect class="cls-2" x="210.55" y="105.43" width="133.9" height="55.05" transform="translate(410.45 -144.55) rotate(90)"/><path class="cls-3" d="M1631.94,200V96.86a11.24,11.24,0,1,0-7,0V200Z"/><path class="cls-4" d="M280.63,199.9v-92a10,10,0,1,0-6.26,0v92Z"/><path class="cls-3" d="M1482.5,72.24V0h-7V72.24a11.24,11.24,0,1,0,7,0Z"/><path class="cls-3" d="M1919.71,42.83V38h-75.44V70.19a9.16,9.16,0,1,0,5.72,0V42.83Z"/><path class="cls-3" d="M148.5,0V103.14a11.24,11.24,0,1,1-7,0V0Z"/><path class="cls-3" d="M180.92,72.24V0h7V72.24a11.24,11.24,0,1,1-7,0Z"/><path class="cls-3" d="M423.36,200h5.95V107.7H389.88a11.2,11.2,0,1,0,0,7h33.48Z"/><rect class="cls-2" y="40.34" width="110" height="45.22" transform="translate(110 125.9) rotate(180)"/><path class="cls-4" d="M0,65.53H75.61a8.25,8.25,0,1,0,0-5.15H0Z"/><path class="cls-3" d="M1.17,147.19v-3.33H52.85v22.08a6.27,6.27,0,1,1-3.92,0V147.19Z"/><path class="cls-3" d="M565.92,72.24V0h7V72.24a11.24,11.24,0,1,1-7,0Z"/><rect class="cls-2" x="1665.13" y="34.45" width="117" height="48.1" transform="translate(1665.13 1782.13) rotate(-90)"/><path class="cls-4" d="M1720.89,0V80.42a8.76,8.76,0,1,0,5.48,0V0Z"/><rect class="cls-2" x="1524.77" y="134.74" width="92.49" height="38.03" transform="translate(1724.77 -1417.26) rotate(90)"/><path class="cls-4" d="M1573.18,200V136.42a6.93,6.93,0,1,0-4.33,0V200Z"/><path class="cls-3" d="M1318.5,0H1313V84.91h36.28a10.3,10.3,0,1,0,0-6.44h-30.8Z"/><path class="cls-3" d="M1855.52,152.11H1920v-6.27h-64.52a10,10,0,1,0,0,6.27Z"/><path class="cls-3" d="M1236.5,154.46V200h4.43V154.46a7.09,7.09,0,1,0-4.43,0Z"/><rect class="cls-2" x="643.55" y="105.43" width="133.9" height="55.05" transform="translate(843.45 -577.55) rotate(90)"/><path class="cls-4" d="M713.63,199.9v-92a10,10,0,1,0-6.26,0v92Z"/><path class="cls-3" d="M613.92,72.24V0h7V72.24a11.24,11.24,0,1,1-7,0Z"/><rect class="cls-2" x="1227.77" y="25.56" width="88.49" height="36.38" transform="translate(1228.26 1315.77) rotate(-90)"/><path class="cls-4" d="M1269.94-.49V60.34a6.63,6.63,0,1,0,4.14,0V-.49Z"/></svg>